<svg width="61" height="29" viewBox="0 0 61 29" fill="none" xmlns="http://www.w3.org/2000/svg">
<path d="M22.0787 27.995C21.3718 28.0731 20.6572 28.0473 19.9577 27.9186C19.2144 27.7838 18.5045 27.505 17.868 27.0978C17.2555 26.7085 16.7151 26.216 16.2708 25.642C15.8153 25.0896 15.4534 24.4663 15.1994 23.7968C14.7017 22.4643 14.6182 21.0126 14.9598 19.632C15.2555 18.4268 15.7446 17.2776 16.4081 16.229C17.6447 14.3003 19.1866 12.5855 20.9733 11.1517C21.4139 10.7994 21.8713 10.4513 22.3552 10.1231C22.8391 9.79494 23.3547 9.51941 23.8492 9.22074C24.859 8.69393 25.9069 8.24347 26.9841 7.87315C30.0753 6.80556 33.3384 6.32285 36.6066 6.44968C38.0496 6.53135 39.4827 6.74013 40.8892 7.07359C41.2415 7.16962 41.5949 7.2435 41.9431 7.3564L42.9909 7.70037L44.059 8.1613C44.4116 8.32901 44.738 8.54846 45.0759 8.7394C46.3965 9.58319 47.504 10.7211 48.3117 12.0641C49.0944 13.3759 49.5971 14.8355 49.7881 16.351C49.9828 17.8274 49.9161 19.3264 49.5911 20.7795C49.4271 21.5177 49.2008 22.2406 48.9148 22.9405C48.7683 23.2804 48.6112 23.6266 48.4541 23.937C48.2746 24.279 48.0735 24.6091 47.8521 24.9255C46.9948 26.1868 45.8559 27.2312 44.5254 27.9763C43.7728 28.3937 42.9223 28.6025 42.0618 28.5809C41.132 28.5275 40.2551 28.1305 39.6012 27.4669C39.0606 26.9088 38.6811 26.2147 38.503 25.4584C38.3389 24.7837 38.2676 24.0897 38.291 23.3958C38.3284 22.0677 38.6046 20.7574 39.1064 19.5275C40.0716 17.0643 41.8657 15.0154 44.1797 13.7339C47.1587 12.0641 50.7265 11.807 53.9151 13.0323C54.307 13.1805 54.6864 13.3596 55.0499 13.5679C55.4208 13.7634 55.7798 13.9807 56.125 14.2186C56.817 14.6946 57.4354 15.2698 57.9602 15.9257C58.944 17.1983 59.6914 18.6371 60.167 20.1736C60.4776 21.0921 60.5306 21.5126 60.4347 21.5202C60.3388 21.5279 60.0593 21.1365 59.5661 20.4863C58.9068 19.6137 58.1662 18.8056 57.3545 18.0728C56.8509 17.6338 56.3101 17.2395 55.738 16.8944C55.1368 16.5131 54.4988 16.1935 53.8335 15.9402C53.5396 15.808 53.235 15.7012 52.9228 15.6212C52.7702 15.5649 52.6127 15.523 52.4523 15.496C52.3729 15.4764 52.2916 15.4654 52.2098 15.4629L51.9735 15.4045C51.6594 15.3334 51.3403 15.286 51.0191 15.2627C50.6981 15.2227 50.3743 15.2116 50.0513 15.2295C48.7674 15.2659 47.5037 15.5579 46.3342 16.0885C43.9485 17.0788 42.1393 19.0956 41.4128 21.5748C41.2465 22.19 41.1463 22.8211 41.114 23.4576C41.0726 23.9895 41.1303 24.5245 41.2844 25.0353C41.3759 25.3442 41.5849 25.6048 41.8664 25.7612C42.2016 25.8944 42.5768 25.8834 42.9036 25.7309C44.038 25.2191 45.009 24.4039 45.7096 23.3753C45.8093 23.2432 45.8869 23.1102 45.9782 22.976C46.0609 22.8469 46.1358 22.7129 46.2025 22.5748C46.3344 22.2581 46.5031 21.9551 46.6054 21.6132C46.8551 20.9899 47.0444 20.344 47.1707 19.6844C47.308 18.8674 47.3415 18.0363 47.2705 17.2108C47.1877 16.3905 46.9915 15.5857 46.6875 14.8192C46.2325 13.684 45.5157 12.6723 44.5955 11.8667C44.4443 11.7353 44.2733 11.6304 44.1116 11.5053C43.9528 11.3788 43.7823 11.2678 43.6025 11.1736C42.0587 10.3726 40.3736 9.88018 38.6417 9.72393C36.8387 9.52612 35.0203 9.51489 33.2151 9.69041C29.2361 10.0683 25.3252 11.3316 22.4135 13.9521C20.908 15.2037 19.629 16.7051 18.6326 18.3905C18.1772 19.177 17.8742 20.0423 17.7393 20.9412C17.6287 21.7517 17.7907 22.5761 18.1998 23.2846C18.6799 24.166 19.5146 24.7994 20.4926 25.0242C21.5779 25.1763 22.6839 25.0076 23.6744 24.5389C25.9101 23.5431 27.8935 22.058 29.4784 20.1929C30.6463 18.7455 31.5747 17.1202 32.2283 15.3789C32.9192 13.6943 33.1976 11.8689 33.0402 10.0546C32.856 8.33557 31.9503 6.77549 30.5487 5.76319C29.06 4.74313 27.3473 4.09723 25.556 3.88031C22.7106 3.52171 19.8213 3.79535 17.0942 4.68172C16.4118 4.88363 15.7405 5.12126 15.0831 5.39363C14.423 5.65586 13.7874 5.98233 13.1411 6.27932C11.8878 6.94277 10.6884 7.70326 9.55373 8.55381L8.80071 9.102C8.54294 9.25769 8.33187 9.51447 8.11323 9.71117L7.42367 10.3288L6.77116 10.9958L6.16588 11.5984C5.98834 11.7919 5.83294 11.9863 5.67118 12.1702C5.35819 12.5316 5.02919 12.8309 4.78458 13.151C4.29428 13.7775 3.82982 14.2448 3.49272 14.6495C2.99158 15.2841 2.36396 15.8075 1.64969 16.1865C1.39233 16.3371 1.12591 16.4716 0.851944 16.5893C0.477014 16.6937 0.394464 16.2479 0.533712 15.266C0.5704 14.9882 0.627681 14.7135 0.705081 14.4442C0.811705 14.1572 0.935096 13.8384 1.08161 13.4986C1.42948 12.701 1.85428 11.9392 2.34998 11.2241C3.98999 8.7887 6.07912 6.68832 8.50557 5.0354C10.9732 3.30957 13.7146 2.01312 16.6143 1.20075C19.6224 0.333664 22.78 0.112968 25.8798 0.553162C27.5098 0.7902 29.095 1.27094 30.5823 1.97928C31.3728 2.37131 32.1183 2.84826 32.8056 3.4017C33.5242 3.99589 34.1568 4.68712 34.6851 5.45552C35.4563 6.61445 35.9575 7.93174 36.1517 9.31014C36.3204 10.5851 36.2928 11.8783 36.0698 13.1448C35.6257 15.4897 34.7421 17.7293 33.4657 19.7454C33.1636 20.2439 32.8331 20.7308 32.4878 21.2052C32.1291 21.703 31.7398 22.178 31.3222 22.6274C30.514 23.471 29.6471 24.2562 28.728 24.9772C27.7974 25.7112 26.7979 26.3534 25.7435 26.8947C24.603 27.4955 23.3671 27.8944 22.0906 28.074L22.0787 27.995Z" fill="white" fill-opacity="0.5"/>
</svg>
