<svg width="36" height="36" viewBox="0 0 36 36" fill="none" xmlns="http://www.w3.org/2000/svg">
<path d="M14.355 28.2301C14.07 28.2301 13.785 28.1251 13.56 27.9001L4.45497 18.7951C4.24575 18.5833 4.12842 18.2977 4.12842 18.0001C4.12842 17.7024 4.24575 17.4168 4.45497 17.2051L13.56 8.10005C13.995 7.66505 14.715 7.66505 15.15 8.10005C15.585 8.53505 15.585 9.25505 15.15 9.69005L6.83997 18.0001L15.15 26.3101C15.585 26.7451 15.585 27.4651 15.15 27.9001C14.94 28.1251 14.64 28.2301 14.355 28.2301Z" fill="white"/>
<path d="M30.7499 19.125H5.50488C4.88988 19.125 4.37988 18.615 4.37988 18C4.37988 17.385 4.88988 16.875 5.50488 16.875H30.7499C31.3649 16.875 31.8749 17.385 31.8749 18C31.8749 18.615 31.3649 19.125 30.7499 19.125Z" fill="white"/>
</svg>
