<svg width="203" height="202" viewBox="0 0 203 202" fill="none" xmlns="http://www.w3.org/2000/svg">
<g clip-path="url(#clip0_17822_459)">
<path d="M109.502 75.357L118.785 84.597L93.6626 109.613L68.5433 84.6004L77.8264 75.357L93.666 91.2107L109.502 75.357ZM125.345 59.5849L134.704 68.825L125.427 78.065L116.144 68.825L125.345 59.5849ZM93.666 59.5849L102.946 68.7433L93.6626 77.9868L84.3829 68.825L93.6626 59.5883L93.666 59.5849ZM61.9833 59.5849L71.1878 68.825L61.9901 77.9834L52.7036 68.825L61.9833 59.5849ZM93.6694 28.034L118.789 52.9713L109.506 62.2079L93.666 46.4359L77.8298 62.2896L68.5467 53.0495L93.666 28.0374L93.6694 28.034Z" fill="#FFBB0D"/>
</g>
<rect x="1.20361" y="0.5" width="183" height="187" rx="4.5" fill="white" fill-opacity="0.06" stroke="url(#paint0_linear_17822_459)"/>
<mask id="path-3-outside-1_17822_459" maskUnits="userSpaceOnUse" x="157.754" y="152.452" width="45.7374" height="49.551" fill="black">
<rect fill="white" x="157.754" y="152.452" width="45.7374" height="49.551"/>
<path d="M158.55 188.081L184.76 153.615L202.407 167.035L176.197 201.501L158.55 188.081Z"/>
</mask>
<path d="M158.55 188.081L184.76 153.615L202.407 167.035L176.197 201.501L158.55 188.081Z" fill="#07101D"/>
<path d="M159.346 188.687L185.556 154.22L183.964 153.01L157.754 187.476L159.346 188.687Z" fill="#FFBF1C" mask="url(#path-3-outside-1_17822_459)"/>
<path d="M52.6461 151.288C53.4141 151.656 54.0221 152.184 54.4701 152.872C54.9341 153.56 55.1661 154.352 55.1661 155.248C55.1661 156.592 54.6941 157.72 53.7501 158.632C52.8061 159.544 51.6541 160 50.2941 160H43.0461V143.2H49.7661C51.0781 143.2 52.1901 143.64 53.1021 144.52C54.0141 145.4 54.4701 146.488 54.4701 147.784C54.4701 149.272 53.8621 150.44 52.6461 151.288ZM49.7661 145.288H45.2781V150.424H49.7661C50.4701 150.424 51.0621 150.176 51.5421 149.68C52.0221 149.184 52.2621 148.576 52.2621 147.856C52.2621 147.152 52.0141 146.552 51.5181 146.056C51.0381 145.544 50.4541 145.288 49.7661 145.288ZM50.2941 157.912C51.0461 157.912 51.6781 157.648 52.1901 157.12C52.7021 156.592 52.9581 155.944 52.9581 155.176C52.9581 154.424 52.6941 153.784 52.1661 153.256C51.6541 152.728 51.0301 152.464 50.2941 152.464H45.2781V157.912H50.2941ZM67.602 148H69.69V160H67.602V157.936C66.562 159.52 65.05 160.312 63.066 160.312C61.386 160.312 59.954 159.704 58.77 158.488C57.586 157.256 56.994 155.76 56.994 154C56.994 152.24 57.586 150.752 58.77 149.536C59.954 148.304 61.386 147.688 63.066 147.688C65.05 147.688 66.562 148.48 67.602 150.064V148ZM63.33 158.296C64.546 158.296 65.562 157.888 66.378 157.072C67.194 156.24 67.602 155.216 67.602 154C67.602 152.784 67.194 151.768 66.378 150.952C65.562 150.12 64.546 149.704 63.33 149.704C62.13 149.704 61.122 150.12 60.306 150.952C59.49 151.768 59.082 152.784 59.082 154C59.082 155.216 59.49 156.24 60.306 157.072C61.122 157.888 62.13 158.296 63.33 158.296ZM73.9095 145.816C73.5095 145.816 73.1735 145.68 72.9015 145.408C72.6295 145.136 72.4935 144.808 72.4935 144.424C72.4935 144.04 72.6295 143.712 72.9015 143.44C73.1735 143.152 73.5095 143.008 73.9095 143.008C74.2935 143.008 74.6215 143.152 74.8935 143.44C75.1655 143.712 75.3015 144.04 75.3015 144.424C75.3015 144.808 75.1655 145.136 74.8935 145.408C74.6215 145.68 74.2935 145.816 73.9095 145.816ZM72.8535 160V148H74.9415V160H72.8535ZM84.103 147.688C85.511 147.688 86.639 148.136 87.487 149.032C88.335 149.912 88.759 151.112 88.759 152.632V160H86.671V152.752C86.671 151.776 86.407 151.024 85.879 150.496C85.351 149.952 84.623 149.68 83.695 149.68C82.655 149.68 81.815 150.008 81.175 150.664C80.535 151.304 80.215 152.296 80.215 153.64V160H78.127V148H80.215V149.728C81.063 148.368 82.359 147.688 84.103 147.688ZM101.61 148H103.698V160H101.61V157.936C100.57 159.52 99.0578 160.312 97.0738 160.312C95.3938 160.312 93.9618 159.704 92.7778 158.488C91.5938 157.256 91.0018 155.76 91.0018 154C91.0018 152.24 91.5938 150.752 92.7778 149.536C93.9618 148.304 95.3938 147.688 97.0738 147.688C99.0578 147.688 100.57 148.48 101.61 150.064V148ZM97.3378 158.296C98.5538 158.296 99.5698 157.888 100.386 157.072C101.202 156.24 101.61 155.216 101.61 154C101.61 152.784 101.202 151.768 100.386 150.952C99.5698 150.12 98.5538 149.704 97.3378 149.704C96.1378 149.704 95.1298 150.12 94.3138 150.952C93.4978 151.768 93.0898 152.784 93.0898 154C93.0898 155.216 93.4978 156.24 94.3138 157.072C95.1298 157.888 96.1378 158.296 97.3378 158.296ZM112.837 147.688C114.245 147.688 115.373 148.136 116.221 149.032C117.069 149.912 117.493 151.112 117.493 152.632V160H115.405V152.752C115.405 151.776 115.141 151.024 114.613 150.496C114.085 149.952 113.357 149.68 112.429 149.68C111.389 149.68 110.549 150.008 109.909 150.664C109.269 151.304 108.949 152.296 108.949 153.64V160H106.861V148H108.949V149.728C109.797 148.368 111.093 147.688 112.837 147.688ZM126.048 160.312C124.24 160.312 122.736 159.712 121.536 158.512C120.336 157.296 119.736 155.792 119.736 154C119.736 152.208 120.336 150.712 121.536 149.512C122.736 148.296 124.24 147.688 126.048 147.688C127.232 147.688 128.296 147.976 129.24 148.552C130.184 149.112 130.888 149.872 131.352 150.832L129.6 151.84C129.296 151.2 128.824 150.688 128.184 150.304C127.56 149.92 126.848 149.728 126.048 149.728C124.848 149.728 123.84 150.136 123.024 150.952C122.224 151.768 121.824 152.784 121.824 154C121.824 155.2 122.224 156.208 123.024 157.024C123.84 157.84 124.848 158.248 126.048 158.248C126.848 158.248 127.568 158.064 128.208 157.696C128.848 157.312 129.336 156.8 129.672 156.16L131.448 157.192C130.936 158.136 130.2 158.896 129.24 159.472C128.28 160.032 127.216 160.312 126.048 160.312ZM134.81 154.96C135.018 156.032 135.506 156.864 136.274 157.456C137.058 158.048 138.018 158.344 139.154 158.344C140.738 158.344 141.89 157.76 142.61 156.592L144.386 157.6C143.218 159.408 141.458 160.312 139.106 160.312C137.202 160.312 135.65 159.72 134.45 158.536C133.266 157.336 132.674 155.824 132.674 154C132.674 152.192 133.258 150.688 134.426 149.488C135.594 148.288 137.106 147.688 138.962 147.688C140.722 147.688 142.154 148.312 143.258 149.56C144.378 150.792 144.938 152.28 144.938 154.024C144.938 154.328 144.914 154.64 144.866 154.96H134.81ZM138.962 149.656C137.842 149.656 136.914 149.976 136.178 150.616C135.442 151.24 134.986 152.08 134.81 153.136H142.826C142.65 152 142.202 151.136 141.482 150.544C140.762 149.952 139.922 149.656 138.962 149.656Z" fill="white" fill-opacity="0.5"/>
<defs>
<linearGradient id="paint0_linear_17822_459" x1="173.204" y1="167" x2="0.703612" y2="1.80385e-06" gradientUnits="userSpaceOnUse">
<stop offset="0.1875" stop-color="#FFBF1C"/>
<stop offset="0.857889" stop-color="#07101D"/>
</linearGradient>
<clipPath id="clip0_17822_459">
<rect width="82" height="81.65" fill="white" transform="translate(52.7036 28)"/>
</clipPath>
</defs>
</svg>
