<svg width="81" height="81" viewBox="0 0 81 81" fill="none" xmlns="http://www.w3.org/2000/svg">
<rect width="81" height="81" rx="40" fill="url(#paint0_linear_17822_468)"/>
<path d="M55.0984 38.9938C54.1884 36.9456 52.8655 35.1073 51.2125 33.5938L49.8484 32.3422C49.8021 32.3009 49.7464 32.2716 49.6861 32.2568C49.6258 32.2421 49.5628 32.2423 49.5026 32.2576C49.4425 32.2729 49.387 32.3027 49.341 32.3444C49.2951 32.3861 49.2601 32.4385 49.2391 32.4969L48.6297 34.2454C48.25 35.3422 47.5516 36.4625 46.5625 37.5641C46.4969 37.6344 46.4219 37.6532 46.3703 37.6579C46.3188 37.6625 46.2391 37.6532 46.1687 37.5875C46.1031 37.5313 46.0703 37.4469 46.075 37.3625C46.2484 34.5407 45.4047 31.3579 43.5578 27.8938C42.0297 25.0157 39.9062 22.7704 37.2531 21.2047L35.3172 20.0657C35.0641 19.9157 34.7406 20.1125 34.7547 20.4079L34.8578 22.6579C34.9281 24.1954 34.75 25.5547 34.3281 26.6844C33.8125 28.0672 33.0719 29.3516 32.125 30.5047C31.466 31.3061 30.7192 32.031 29.8984 32.6657C27.9217 34.1852 26.3144 36.1322 25.1969 38.361C24.0821 40.6092 23.5014 43.0844 23.5 45.5938C23.5 47.8063 23.9359 49.9485 24.7984 51.9688C25.6312 53.9139 26.8331 55.6793 28.3375 57.1672C29.8563 58.6672 31.6188 59.8485 33.5828 60.6688C35.6172 61.5219 37.7734 61.9532 40 61.9532C42.2266 61.9532 44.3828 61.5219 46.4172 60.6735C48.3764 59.858 50.158 58.6686 51.6625 57.1719C53.1812 55.6719 54.3719 53.9188 55.2016 51.9735C56.0628 49.9587 56.5046 47.7896 56.5 45.5985C56.5 43.311 56.0312 41.0891 55.0984 38.9938Z" fill="white"/>
<defs>
<linearGradient id="paint0_linear_17822_468" x1="87.75" y1="40.5" x2="0.273569" y2="40.3008" gradientUnits="userSpaceOnUse">
<stop offset="0.140625" stop-color="#FF640D"/>
<stop offset="0.255208" stop-color="#FE4C0B" stop-opacity="0.975119"/>
<stop offset="0.484375" stop-color="#FC0606" stop-opacity="0.903404"/>
<stop offset="0.958333" stop-color="#8212F1" stop-opacity="0.81"/>
</linearGradient>
</defs>
</svg>
