<svg width="206" height="202" viewBox="0 0 206 202" fill="none" xmlns="http://www.w3.org/2000/svg">
<g filter="url(#filter0_d_17822_403)">
<rect x="4" width="184" height="188" rx="5" fill="white" fill-opacity="0.06" shape-rendering="crispEdges"/>
<rect x="4.5" y="0.5" width="183" height="187" rx="4.5" stroke="url(#paint0_linear_17822_403)" shape-rendering="crispEdges"/>
</g>
<g clip-path="url(#clip0_17822_403)">
<path d="M129.813 37L99.1472 59.6904L104.85 46.3183L129.813 37Z" fill="#E17726"/>
<path d="M61.7312 37.0268L86.6276 46.32L92.0423 59.8674L61.7312 37.0268ZM117.472 85.2562L131.026 85.5141L126.289 101.606L109.75 97.0524L117.472 85.2562ZM74 85.2562L81.693 97.0524L65.1823 101.606L60.4741 85.5141L74 85.2562Z" fill="#E27625"/>
<path d="M91.3059 56.4166L91.8598 74.3064L75.2854 73.5524L80 66.4398L80.0597 66.3714L91.3059 56.4166ZM99.9944 56.217L111.412 66.3719L111.472 66.4401L116.186 73.5527L99.6153 74.3064L99.9944 56.217ZM82.1783 85.3081L91.2283 92.3596L80.7155 97.4351L82.1783 85.3081ZM109.295 85.307L110.728 97.4354L100.244 92.359L109.295 85.307Z" fill="#E27625"/>
<path d="M100.476 91.6949L111.114 96.8461L101.218 101.549L101.321 98.4407L100.476 91.6949ZM90.9933 91.6972L90.1812 98.3899L90.2479 101.545L80.3291 96.8461L90.9933 91.6972Z" fill="#D5BFB2"/>
<path d="M87.9215 76.6414L90.7014 82.4838L81.2368 79.7111L87.9215 76.6414ZM103.551 76.6419L110.267 79.7111L100.771 82.4829L103.551 76.6419Z" fill="#233447"/>
<path d="M82.9017 85.2483L81.3718 97.822L73.1719 85.5233L82.9017 85.2483ZM108.571 85.2486L118.301 85.5233L110.07 97.8225L108.571 85.2486ZM116.426 72.8413L109.345 80.058L103.885 77.5631L101.271 83.0583L99.5576 73.6087L116.426 72.8413ZM75.0428 72.8413L91.9143 73.6087L90.2005 83.0583L87.5861 77.564L82.1555 80.0583L75.0428 72.8413Z" fill="#CC6228"/>
<path d="M74.5659 71.3603L82.5774 79.49L82.8549 87.5157L74.5659 71.3603ZM116.915 71.3458L108.611 87.53L108.923 79.49L116.915 71.3458ZM91.5228 71.8556L91.8452 73.8851L92.642 78.9411L92.1297 94.4698L89.7079 81.9952L89.7071 81.8662L91.5228 71.8556ZM99.9455 71.8274L101.766 81.8662L101.765 81.9952L99.3372 94.501L99.2412 91.373L98.8624 78.849L99.9455 71.8274Z" fill="#E27525"/>
<path d="M109.635 79.167L109.364 86.14L100.913 92.7247L99.2041 91.5176L101.119 81.6532L109.635 79.167ZM81.8662 79.167L90.3526 81.6532L92.2677 91.5176L90.5592 92.7247L82.1074 86.1395L81.8662 79.167Z" fill="#F5841F"/>
<path d="M78.7119 95.3062L89.5246 100.429L89.4788 98.2416L90.3836 97.4474H101.085L102.023 98.2388L101.953 100.425L112.698 95.319L107.469 99.6394L101.148 103.981H90.2968L83.9792 99.6215L78.7119 95.3062Z" fill="#C0AC9D"/>
<path d="M99.7014 91.0129L101.23 92.093L102.126 99.2408L100.83 98.1462H90.6466L89.3748 99.2629L90.2413 92.0936L91.7706 91.0129H99.7014Z" fill="#161616"/>
<path d="M127.788 37.6281L131.469 48.6711L129.17 59.8369L130.807 61.0996L128.592 62.7897L130.257 64.0755L128.053 66.083L129.406 67.0632L125.814 71.2579L111.083 66.9685L110.955 66.9001L100.339 57.945L127.788 37.6281ZM63.6838 37.6281L91.1331 57.945L80.517 66.9001L80.3894 66.9685L65.6578 71.2579L62.066 67.0632L63.4183 66.0839L61.2151 64.0755L62.8767 62.7911L60.6283 61.0963L62.327 59.8328L60.0027 48.6717L63.6838 37.6281Z" fill="#763E1A"/>
<path d="M110.362 66.0306L125.971 70.5751L131.042 86.2045H117.663L108.445 86.3207L115.149 73.2534L110.362 66.0306ZM81.1099 66.0306L76.3219 73.2534L83.0267 86.3207L73.8128 86.2045H60.458L65.5006 70.5754L81.1099 66.0306ZM105.614 46.2438L101.248 58.0355L100.322 73.9647L99.9671 78.9576L99.9389 91.7122H91.5329L91.5055 78.9817L91.1499 73.9606L90.223 58.0355L85.8577 46.2438H105.614Z" fill="#F5841F"/>
</g>
<path d="M51.5317 143.2V160H49.3237V146.872L43.8277 156.016H43.5397L38.0437 146.896V160H35.8117V143.2H38.3317L43.6837 152.08L49.0117 143.2H51.5317ZM56.3722 154.96C56.5802 156.032 57.0682 156.864 57.8362 157.456C58.6202 158.048 59.5802 158.344 60.7162 158.344C62.3002 158.344 63.4522 157.76 64.1722 156.592L65.9482 157.6C64.7802 159.408 63.0202 160.312 60.6682 160.312C58.7642 160.312 57.2122 159.72 56.0122 158.536C54.8282 157.336 54.2362 155.824 54.2362 154C54.2362 152.192 54.8202 150.688 55.9882 149.488C57.1562 148.288 58.6682 147.688 60.5242 147.688C62.2842 147.688 63.7162 148.312 64.8202 149.56C65.9402 150.792 66.5002 152.28 66.5002 154.024C66.5002 154.328 66.4762 154.64 66.4282 154.96H56.3722ZM60.5242 149.656C59.4042 149.656 58.4762 149.976 57.7402 150.616C57.0042 151.24 56.5482 152.08 56.3722 153.136H64.3882C64.2122 152 63.7642 151.136 63.0442 150.544C62.3242 149.952 61.4842 149.656 60.5242 149.656ZM75.0768 150.016H71.8848V156.52C71.8848 157.112 71.9968 157.536 72.2208 157.792C72.4608 158.032 72.8208 158.16 73.3008 158.176C73.7808 158.176 74.3728 158.16 75.0768 158.128V160C73.2528 160.24 71.9168 160.096 71.0688 159.568C70.2208 159.024 69.7968 158.008 69.7968 156.52V150.016H67.4208V148H69.7968V145.264L71.8848 144.64V148H75.0768V150.016ZM86.8755 148H88.9635V160H86.8755V157.936C85.8355 159.52 84.3235 160.312 82.3395 160.312C80.6595 160.312 79.2275 159.704 78.0435 158.488C76.8595 157.256 76.2675 155.76 76.2675 154C76.2675 152.24 76.8595 150.752 78.0435 149.536C79.2275 148.304 80.6595 147.688 82.3395 147.688C84.3235 147.688 85.8355 148.48 86.8755 150.064V148ZM82.6035 158.296C83.8195 158.296 84.8355 157.888 85.6515 157.072C86.4675 156.24 86.8755 155.216 86.8755 154C86.8755 152.784 86.4675 151.768 85.6515 150.952C84.8355 150.12 83.8195 149.704 82.6035 149.704C81.4035 149.704 80.3955 150.12 79.5795 150.952C78.7635 151.768 78.3555 152.784 78.3555 154C78.3555 155.216 78.7635 156.24 79.5795 157.072C80.3955 157.888 81.4035 158.296 82.6035 158.296ZM114.063 143.2V160H111.855V146.872L106.359 156.016H106.071L100.575 146.896V160H98.343V143.2H100.863L106.215 152.08L111.543 143.2H114.063ZM127.375 148H129.463V160H127.375V157.936C126.335 159.52 124.823 160.312 122.839 160.312C121.159 160.312 119.727 159.704 118.543 158.488C117.359 157.256 116.767 155.76 116.767 154C116.767 152.24 117.359 150.752 118.543 149.536C119.727 148.304 121.159 147.688 122.839 147.688C124.823 147.688 126.335 148.48 127.375 150.064V148ZM123.103 158.296C124.319 158.296 125.335 157.888 126.151 157.072C126.967 156.24 127.375 155.216 127.375 154C127.375 152.784 126.967 151.768 126.151 150.952C125.335 150.12 124.319 149.704 123.103 149.704C121.903 149.704 120.895 150.12 120.079 150.952C119.263 151.768 118.855 152.784 118.855 154C118.855 155.216 119.263 156.24 120.079 157.072C120.895 157.888 121.903 158.296 123.103 158.296ZM134.404 151.24C134.404 151.704 134.636 152.08 135.1 152.368C135.564 152.64 136.124 152.864 136.78 153.04C137.436 153.2 138.092 153.392 138.748 153.616C139.404 153.824 139.964 154.192 140.428 154.72C140.892 155.232 141.124 155.896 141.124 156.712C141.124 157.8 140.7 158.672 139.852 159.328C139.02 159.984 137.948 160.312 136.636 160.312C135.468 160.312 134.468 160.056 133.636 159.544C132.804 159.032 132.212 158.352 131.86 157.504L133.66 156.472C133.852 157.048 134.212 157.504 134.74 157.84C135.268 158.176 135.9 158.344 136.636 158.344C137.324 158.344 137.892 158.216 138.34 157.96C138.788 157.688 139.012 157.272 139.012 156.712C139.012 156.248 138.78 155.88 138.316 155.608C137.852 155.32 137.292 155.096 136.636 154.936C135.98 154.76 135.324 154.56 134.668 154.336C134.012 154.112 133.452 153.744 132.988 153.232C132.524 152.72 132.292 152.064 132.292 151.264C132.292 150.224 132.692 149.368 133.492 148.696C134.308 148.024 135.324 147.688 136.54 147.688C137.516 147.688 138.38 147.912 139.132 148.36C139.9 148.792 140.476 149.4 140.86 150.184L139.108 151.168C138.676 150.144 137.82 149.632 136.54 149.632C135.948 149.632 135.444 149.776 135.028 150.064C134.612 150.336 134.404 150.728 134.404 151.24ZM153.631 160H151.039L145.567 154.312V160H143.479V143.2H145.567V153.304L150.751 148H153.439L147.703 153.808L153.631 160Z" fill="white" fill-opacity="0.5"/>
<mask id="path-16-outside-1_17822_403" maskUnits="userSpaceOnUse" x="161.051" y="152.452" width="45.7374" height="49.551" fill="black">
<rect fill="white" x="161.051" y="152.452" width="45.7374" height="49.551"/>
<path d="M161.847 188.081L188.057 153.615L205.704 167.035L179.494 201.501L161.847 188.081Z"/>
</mask>
<path d="M161.847 188.081L188.057 153.615L205.704 167.035L179.494 201.501L161.847 188.081Z" fill="#07101D"/>
<path d="M162.643 188.687L188.853 154.22L187.261 153.01L161.051 187.476L162.643 188.687Z" fill="#FC280C" mask="url(#path-16-outside-1_17822_403)"/>
<defs>
<filter id="filter0_d_17822_403" x="0" y="0" width="192" height="196" filterUnits="userSpaceOnUse" color-interpolation-filters="sRGB">
<feFlood flood-opacity="0" result="BackgroundImageFix"/>
<feColorMatrix in="SourceAlpha" type="matrix" values="0 0 0 0 0 0 0 0 0 0 0 0 0 0 0 0 0 0 127 0" result="hardAlpha"/>
<feOffset dy="4"/>
<feGaussianBlur stdDeviation="2"/>
<feComposite in2="hardAlpha" operator="out"/>
<feColorMatrix type="matrix" values="0 0 0 0 0 0 0 0 0 0 0 0 0 0 0 0 0 0 0.25 0"/>
<feBlend mode="normal" in2="BackgroundImageFix" result="effect1_dropShadow_17822_403"/>
<feBlend mode="normal" in="SourceGraphic" in2="effect1_dropShadow_17822_403" result="shape"/>
</filter>
<linearGradient id="paint0_linear_17822_403" x1="170" y1="176" x2="4.00001" y2="-1.38356e-05" gradientUnits="userSpaceOnUse">
<stop stop-color="#FC280C"/>
<stop offset="1" stop-color="#07101D"/>
<stop offset="1" stop-color="#07101D"/>
</linearGradient>
<clipPath id="clip0_17822_403">
<rect width="71.4722" height="67" fill="white" transform="translate(60 37)"/>
</clipPath>
</defs>
</svg>
