<svg width="81" height="81" viewBox="0 0 81 81" fill="none" xmlns="http://www.w3.org/2000/svg">
<rect width="81" height="81" rx="40" fill="url(#paint0_linear_17822_492)"/>
<path d="M27.48 49C27.7 48.02 27.3 46.62 26.6 45.92L21.74 41.06C20.22 39.54 19.62 37.92 20.06 36.52C20.52 35.12 21.94 34.16 24.06 33.8L30.3 32.76C31.2 32.6 32.3 31.8 32.72 30.98L36.16 24.08C37.16 22.1 38.52 21 40 21C41.48 21 42.84 22.1 43.84 24.08L47.28 30.98C47.54 31.5 48.08 32 48.66 32.34L27.12 53.88C26.84 54.16 26.36 53.9 26.44 53.5L27.48 49ZM53.4 45.924C52.68 46.644 52.28 48.024 52.52 49.004L53.9 55.024C54.48 57.524 54.12 59.404 52.88 60.304C52.3533 60.6721 51.7223 60.8614 51.08 60.844C50.06 60.844 48.86 60.464 47.54 59.684L41.68 56.204C40.76 55.664 39.24 55.664 38.32 56.204L32.46 59.684C30.24 60.984 28.34 61.204 27.12 60.304C26.66 59.964 26.32 59.504 26.1 58.904L50.42 34.584C51.34 33.664 52.64 33.244 53.9 33.464L55.92 33.804C58.04 34.164 59.46 35.124 59.92 36.524C60.36 37.924 59.76 39.544 58.24 41.064L53.4 45.924Z" fill="white"/>
<defs>
<linearGradient id="paint0_linear_17822_492" x1="87.75" y1="40.5" x2="0.273569" y2="40.3008" gradientUnits="userSpaceOnUse">
<stop stop-color="#F44A15"/>
<stop offset="0.525918" stop-color="#FC0606" stop-opacity="0.903404"/>
<stop offset="1" stop-color="#8212F1" stop-opacity="0.81"/>
</linearGradient>
</defs>
</svg>
